<svg xmlns="http://www.w3.org/2000/svg" width="200" height="200" viewBox="0 0 200 200">
  <path fill="#585858" fill-rule="evenodd" d="M96.131329,1.38157632 C98.0892071,-0.40230523 101.123588,-0.352952726 103.021996,1.53552863 L103.021996,1.53552863 L198.445077,96.4551264 C198.451328,96.4613446 198.457563,96.4675792 198.463781,96.4738303 C200.411231,98.4316099 200.402857,101.597424 198.445077,103.544873 L198.445077,103.544873 L103.021996,198.464471 L103.021996,198.464471 L102.840753,198.636215 C100.873442,200.409688 97.8393653,200.344244 95.9509995,198.445721 L95.9509995,198.445721 L1.534717,103.526123 C-0.405389713,101.575674 -0.405389713,98.4243261 1.534717,96.4738771 L1.534717,96.4738771 L63.861637,33.8133612 L64.836551,34.7641803 L85.0290791,55.1128139 C83.9688021,57.2495561 83.3722123,59.6606437 83.3722123,62.2121481 C83.3722123,69.1323447 87.7607517,75.0196294 93.8862819,77.2019823 L93.8862819,77.2019823 L93.8862819,128.461929 C87.7607517,130.644282 83.3722123,136.531567 83.3722123,143.451763 C83.3722123,152.230168 90.4339944,159.34647 99.1451441,159.34647 C107.856294,159.34647 114.918076,152.230168 114.918076,143.451763 C114.918076,136.97948 111.079253,131.410725 105.570892,128.931531 L105.570892,128.931531 L105.571466,76.7321219 C105.779851,76.6383223 105.985846,76.5401009 106.189335,76.4375761 L106.189335,76.4375761 L125.550661,95.9475168 C124.723389,97.878075 124.264998,100.006724 124.264998,102.243263 C124.264998,111.021667 131.32678,118.13797 140.03793,118.13797 C148.74908,118.13797 155.810862,111.021667 155.810862,102.243263 C155.810862,93.4648583 148.74908,86.3485555 140.03793,86.3485555 C137.830806,86.3485555 135.729563,86.8053879 133.822235,87.6303404 L133.822235,87.6303404 L113.976902,67.6332551 C114.58595,65.9414777 114.918076,64.1158985 114.918076,62.2121481 C114.918076,53.4337437 107.856294,46.3174408 99.1451441,46.3174408 C97.2559791,46.3174408 95.4443863,46.6521312 93.7655703,47.2658813 L93.7655703,47.2658813 L73.0981414,26.438806 L72.162637,25.4683612 L95.9509995,1.55427901 L95.9509995,1.55427901 Z"/>
</svg>
