<svg xmlns="http://www.w3.org/2000/svg" width="200" height="200" viewBox="0 0 200 200">
  <path fill="#585858" fill-rule="evenodd" d="M200,0 L200,200 L0,200 L0,0 L200,0 Z M108.673892,91.7712902 L89.5508874,91.7712902 C89.4558767,109.775838 89.4558767,122.141502 89.5508874,128.868284 C89.7752393,144.75245 90.5566516,154.996674 89.5508874,159.611053 C89.1330338,161.528137 88.1799811,164.248706 86.2222643,165.450888 C83.2886939,167.252317 79.0368975,167.062119 78.459471,167.005398 C75.221636,166.687347 71.6077594,163.328348 67.6178412,156.928401 L67.6178412,156.928401 L51.9237775,167.005398 C59.5427662,178.332343 68.3879974,183.995816 78.459471,183.995816 C81.0399748,183.995816 92.8550292,183.503848 100,177.811526 C106.490614,172.640523 108.470129,162.488288 108.673892,157.635654 C109.045544,148.784711 109.045544,126.829923 108.673892,91.7712902 L108.673892,91.7712902 Z M161.313394,91.7712902 C154.710106,90.1456857 145.345829,90.9989351 141.75712,92.2397731 C134.161297,94.8661181 129.394577,100.51034 128.198471,102.616431 C125.62189,107.153248 125.034279,112.180703 124.972704,116.978749 C124.864647,125.398838 130.008097,131.478228 132.192197,133.737721 C133.42306,135.011072 135.812222,136.986398 138.936912,138.848512 C140.67231,139.882698 142.748116,140.766829 144.707311,141.751275 C152.211865,145.522121 160.657318,148.999525 162.121168,150.277114 C164.655292,152.488795 165.789165,154.644012 165.789165,158.029923 C165.789165,161.415835 163.881855,163.496741 162.121168,164.873018 C158.829655,167.445898 153.47546,167.58315 151.432931,167.58315 C149.340996,167.58315 144.579788,167.014871 140.060817,163.642907 C138.558512,162.521918 136.495814,160.050659 133.872721,156.229129 L133.872721,156.229129 L119.339359,164.873018 L119.683062,165.43445 C123.128496,170.995234 126.825942,174.949917 130.775399,177.298499 C134.561077,179.549688 139.017319,181.767283 144.707311,182.659741 C148.218366,183.210439 152.691539,183.218767 156.493321,183.140498 C166.456247,182.935387 171.58648,179.020772 174.720802,176.51887 C180.634435,171.798443 182.859513,166.620238 183.496102,158.029923 C183.747437,154.638322 182.52282,144.901701 176.717443,139.382858 C167.81885,130.923469 153.401925,126.587861 150.885066,124.960551 C146.726227,122.271595 144.410639,121.410611 143.061937,118.177698 C141.713235,114.944784 142.842972,111.091849 144.707311,108.922421 C146.571651,106.752993 149.42927,106.316879 152.690441,106.316879 C155.951613,106.316879 157.70451,107.27618 159.654542,108.634289 C160.954562,109.539695 162.410581,111.371574 164.022597,114.129927 L164.022597,114.129927 L177.967514,105.162447 L177.663251,104.702697 C175.543969,101.525271 173.64641,99.2050424 171.970575,97.7420113 C170.8082,96.7272394 167.446846,93.2812303 161.313394,91.7712902 Z"/>
</svg>
