<svg xmlns="http://www.w3.org/2000/svg" width="198" height="190" viewBox="0 0 198 190">
  <path fill="#585858" fill-rule="evenodd" d="M1934.35678,442 C1927.18317,463.046177 1926.26009,482.85395 1931.58754,501.423318 C1936.915,519.992686 1949.22093,538.024913 1968.50532,555.519999 C1992.76887,570.616749 2016.47601,577.961376 2039.62675,577.553881 C2062.77749,577.146385 2083.56858,567.908774 2102,549.841047 C2092.74192,565.563223 2085.17417,575.858414 2079.29675,580.726621 C2057.64208,598.662957 2015.33754,611.774729 1975.70188,595.811767 C1936.06621,579.848805 1912.03179,537.418681 1910.02646,514.36873 C1909.10306,503.754879 1906.78666,487.752903 1914.87715,468.784214 C1917.29238,463.121548 1923.78559,454.193477 1934.35678,442 Z M1983.65993,423 C1978.09794,439.894141 1977.19971,454.899084 1980.96523,468.014831 C1984.73076,481.130578 1993.41193,494.151426 2007.00874,507.077375 C2023.86731,518.483274 2040.47825,524.042314 2056.84156,523.754496 C2073.20487,523.466678 2089.92435,515.701431 2107,500.458755 C2098.14677,514.377958 2091.64302,523.056793 2087.48877,526.495261 C2072.1829,539.16389 2039.72187,545.383982 2011.70675,534.109168 C1983.69163,522.834354 1967.14291,493.438748 1965.72552,477.158317 C1965.07284,469.661639 1963.43558,458.359268 1969.15406,444.961477 C1970.86119,440.961874 1975.69647,433.641382 1983.65993,423 Z M2026.82561,413 C2023.22707,424.679375 2022.60083,434.699914 2024.94688,443.061617 C2027.29293,451.42332 2032.71209,459.543151 2041.20437,467.42111 C2051.88931,474.219108 2062.32922,477.526361 2072.52412,477.342868 C2082.71901,477.159374 2092.54431,473.290724 2102,465.736916 C2097.02816,472.767361 2093.24812,477.378649 2090.65988,479.570781 C2081.12381,487.647433 2061.82788,492.752362 2044.37351,485.564312 C2026.91915,478.376262 2016.33511,459.270167 2015.45202,448.890878 C2015.04538,444.111509 2014.02531,436.90589 2017.58812,428.364375 C2018.65172,425.814502 2021.73088,420.693044 2026.82561,413 Z" transform="translate(-1909 -413)"/>
</svg>
