<svg xmlns="http://www.w3.org/2000/svg" width="200" height="187" viewBox="0 0 200 187">
  <path fill="#585858" fill-rule="evenodd" d="M2601.00047,417.673543 C2613.11474,425.003513 2615.77788,446.155343 2609.99144,472.740908 C2634.85339,480.782314 2651,493.775096 2651,508.434763 C2651,523.094627 2634.85296,536.08756 2609.99105,544.128555 C2615.77735,570.713862 2613.11412,591.865255 2601,599.195134 C2588.88578,606.525075 2570.07546,598.366333 2550.99973,579.82191 C2531.92389,598.366618 2513.11401,606.524947 2501,599.195134 C2488.88588,591.865255 2486.22265,570.713862 2492.00881,544.128765 C2467.14704,536.08756 2451,523.094627 2451,508.434763 C2451,493.775096 2467.14661,480.782314 2492.00795,472.741294 C2486.22212,446.155343 2488.88526,425.003513 2500.99953,417.673543 C2513.11396,410.343474 2531.92473,418.502629 2551.00081,437.047739 C2570.07592,418.502344 2588.88625,410.343602 2601.00047,417.673543 Z M2501.13361,545.917983 C2498.55787,559.551725 2497.69706,569.272745 2498.55118,575.081045 C2499.83237,583.793494 2502.4731,592.479862 2509.88704,591.968457 C2512.89321,591.761094 2519.53892,590.863309 2527.62717,585.98329 C2531.10059,583.887611 2536.99895,579.226012 2545.32224,571.998493 C2541.21344,567.439497 2538.15547,563.893024 2536.14834,561.359072 C2534.14121,558.82512 2531.30082,554.925065 2527.62717,549.658909 C2521.12937,549.153026 2516.26368,548.671793 2513.03011,548.215208 C2509.79654,547.758624 2505.83104,546.992882 2501.13361,545.917983 Z M2601.16324,545.30303 L2573.68879,549.825527 L2557.06061,571.513634 C2568.0677,581.599097 2575.99038,587.492555 2580.82864,589.194008 C2583.70173,590.204379 2590.33551,592.38505 2594.33753,591.60095 C2596.16242,591.243406 2598.09843,589.598148 2600.14555,586.665176 C2601.3646,583.564252 2602.15129,581.271354 2602.5056,579.786482 C2603.30444,576.438649 2603.45905,573.214288 2603.51726,570.313564 C2603.6142,565.482992 2602.82952,557.146147 2601.16324,545.30303 L2601.16324,545.30303 Z M2562.46181,550.586199 L2539.3328,550.586199 C2541.54789,553.354858 2543.34605,555.598823 2544.72729,557.318093 C2546.10852,559.037363 2548.19943,561.634245 2551,565.108738 C2553.55024,561.934185 2555.48291,559.513762 2556.79802,557.847468 C2558.11313,556.181175 2560.00106,553.760752 2562.46181,550.586199 Z M2568.97426,474.59596 L2532.85932,474.59596 C2529.1778,480.489933 2526.18569,485.486745 2523.88299,489.586395 C2521.58029,493.686046 2518.49808,499.774979 2514.63636,507.853196 C2518.06101,515.573198 2520.79156,521.299984 2522.82801,525.033554 C2524.86446,528.767125 2528.20823,534.176816 2532.85932,541.262626 L2532.85932,541.262626 L2568.97426,541.262626 C2573.94367,533.703468 2577.49201,527.975487 2579.61927,524.078682 C2581.74652,520.181878 2584.32798,514.681036 2587.36364,507.576158 C2583.98147,500.548418 2581.23995,495.150648 2579.13907,491.38285 C2577.03819,487.615051 2573.64992,482.019421 2568.97426,474.59596 L2568.97426,474.59596 Z M2591.68104,518.030303 C2590.08192,521.35245 2588.58643,524.309802 2587.19457,526.902356 C2585.80271,529.494911 2583.50216,533.608267 2580.29293,539.242424 C2584.42048,538.884704 2587.5191,538.592909 2589.58879,538.36704 C2591.65848,538.14117 2594.62046,537.522579 2598.47475,536.511266 C2597.30085,532.290964 2596.30352,529.087994 2595.48278,526.902356 C2594.66204,524.716719 2593.39479,521.759368 2591.68104,518.030303 Z M2509.45561,518.264979 C2507.98993,522.178249 2506.93567,525.133228 2506.29283,527.129914 C2505.64999,529.126601 2504.78439,532.134836 2503.69601,536.154618 C2506.17192,536.914404 2508.52263,537.48982 2510.74816,537.880866 C2512.97369,538.271912 2516.46139,538.722361 2521.21125,539.232211 C2518.36507,534.42604 2516.19309,530.688602 2514.69532,528.019897 C2513.19754,525.351193 2511.45097,522.099553 2509.45561,518.264979 Z M2495.03883,481.260573 C2482.02789,486.639766 2473.48943,490.734759 2469.42344,493.545553 C2463.32446,497.761744 2459.37626,500.234512 2459.74051,507.416531 C2460.10476,514.59855 2464.13942,518.135722 2470.9426,523.49921 C2475.38734,527.003355 2483.19024,530.512439 2494.3513,534.026462 L2495.03883,534.241613 L2504.50437,507.416531 L2495.03883,481.260573 Z M2607.22202,481.666667 L2597.46465,507.46387 L2607.94612,534.191919 C2615.97697,531.017242 2621.45502,528.653072 2624.38026,527.099411 C2627.62384,525.376676 2630.38685,523.628123 2632.45091,522.084818 C2639.73535,516.638218 2641.59453,514.625328 2641.8977,507.46387 C2642.20086,500.302413 2636.41007,496.997404 2629.88264,492.238569 C2625.53103,489.066012 2617.97748,485.542045 2607.22202,481.666667 L2607.22202,481.666667 Z M2551,488.737374 C2560.48368,488.737374 2568.17172,496.877651 2568.17172,506.919192 C2568.17172,516.960733 2560.48368,525.10101 2551,525.10101 C2541.51632,525.10101 2533.82828,516.960733 2533.82828,506.919192 C2533.82828,496.877651 2541.51632,488.737374 2551,488.737374 Z M2580.19487,476.475993 C2582.58545,480.556112 2584.4361,483.759588 2585.74682,486.08642 C2587.05754,488.413252 2589.05533,492.041642 2591.74019,496.971591 C2593.42769,493.013945 2594.61784,490.051089 2595.31065,488.083023 C2596.00346,486.114958 2596.88387,483.195988 2597.95186,479.326113 C2594.16634,478.531578 2591.20685,477.963091 2589.07336,477.620653 C2586.93988,477.278214 2583.98038,476.896661 2580.19487,476.475993 Z M2521.21125,476.475993 L2503.69601,479.0409 L2509.83466,495.627097 L2521.21125,476.475993 Z M2589.47306,423.717429 C2586.34446,423.856975 2583.57832,425.10702 2580.86336,426.426955 C2576.25642,428.666714 2568.31305,434.428031 2557.03324,443.710904 L2573.5407,465.465308 L2600.65746,470.311485 C2602.9235,457.211845 2603.76266,447.468089 2603.17494,441.080217 C2602.29336,431.498409 2598.81073,428.238843 2596.6832,425.471148 C2594.55568,422.703453 2591.65328,423.620183 2589.47306,423.717429 Z M2505.45813,424.765015 C2499.76052,427.787319 2498.84459,434.347332 2498.04567,443.357654 C2497.52415,449.239392 2498.38223,457.97608 2500.61992,469.567716 L2500.76462,470.311485 L2528.00132,466.120061 L2544.5247,444.259565 C2536.34492,436.289973 2529.73888,431.01555 2524.70659,428.436295 C2517.15814,424.567414 2511.15574,421.742711 2505.45813,424.765015 Z M2550.70844,450.39152 L2539.59526,465.072446 C2544.14708,464.843752 2547.68297,464.72464 2550.20293,464.715111 L2550.52586,464.71449 L2561.99416,464.71449 L2550.70844,450.39152 Z" transform="translate(-2451 -415)"/>
</svg>
