<svg xmlns="http://www.w3.org/2000/svg" width="199" height="150" viewBox="0 0 199 150">
  <path fill="#585858" fill-rule="evenodd" d="M2268.50247,434.614098 C2284.15434,437.279271 2291.79446,440.974832 2295.96276,451.833072 C2300.13105,462.691312 2296.07953,469.413674 2289.03789,480.706711 C2281.99625,491.999749 2269.19553,497.942655 2261.52658,500.248068 C2253.85763,502.553481 2248.50797,502.553481 2242.95014,502.553481 C2239.52419,502.553481 2234.49695,502.416033 2232.2317,501.990586 C2229.96646,501.565138 2228.23745,500.689394 2227.18186,500.248068 C2222.45647,498.272451 2219.41748,494.94929 2218.06487,490.278584 C2225.07488,494.347924 2230.95167,496.537314 2235.69523,496.846755 C2242.81056,497.310916 2249.57841,495.911326 2258.32473,492.690295 C2267.07104,489.469263 2268.57103,487.576951 2273.92036,483.171969 C2279.2697,478.766986 2279.99883,476.627381 2281.87806,473.62723 C2286.72232,465.893496 2288.30305,458.546816 2284.84857,453.363786 C2281.39409,448.180756 2274.6387,446.083125 2266.77898,446.083125 C2262.81975,446.083125 2258.25845,445.429755 2246.2035,448.569939 C2234.14855,451.710123 2212.92225,459.966577 2197.23718,475.403096 C2190.68885,481.847658 2186.65528,488.546822 2186.42668,495.504473 C2186.29024,499.657163 2187.3243,504.726131 2195.98339,512.960584 C2201.75612,518.450219 2206.64002,522.81355 2210.6351,526.050577 L2218.06487,533.251096 L2238.91224,521.195037 C2242.32585,517.50534 2244.75627,515.119026 2246.2035,514.036094 C2249.93095,511.246929 2252.89773,510.722221 2254.57068,510.358612 C2256.39518,509.962064 2258.68455,510.009045 2260.19685,512.034184 C2260.6515,512.643008 2261.09474,514.058247 2261.52658,516.279903 L2261.52658,524.18635 C2263.07997,522.318044 2264.48571,521.551993 2265.74378,521.888198 C2267.00185,522.224403 2267.92142,523.611863 2268.50247,526.050577 C2266.51921,531.69287 2265.22241,535.926017 2264.61206,538.750016 C2264.00172,541.574015 2263.55444,545.41055 2263.27023,550.25962 C2269.33579,538.512362 2273.71936,529.542753 2276.42093,523.350792 C2279.1225,517.158831 2281.44408,510.760334 2283.38568,504.155301 C2287.05878,503.087421 2289.56414,502.553481 2290.90177,502.553481 C2292.2394,502.553481 2293.64667,503.087421 2295.12358,504.155301 C2293.84622,510.586988 2293.31255,515.161818 2293.52257,517.87979 C2293.73259,520.597763 2294.8302,523.321359 2296.81541,526.050577 C2301.0101,520.876008 2303.8779,516.732266 2305.41881,513.619353 C2306.95973,510.50644 2308.69891,505.343296 2310.63636,498.129922 C2313.70125,497.274478 2315.98208,496.846755 2317.47883,496.846755 C2318.97558,496.846755 2320.87857,497.274478 2323.18779,498.129922 C2321.1899,504.498774 2320.30135,509.133528 2320.52213,512.034184 C2320.74292,514.934839 2322.29257,518.985561 2325.1711,524.18635 C2333.9895,521.340588 2340.70805,520.027944 2345.32675,520.248419 C2352.2548,520.579132 2357.29833,521.933953 2364.22445,528.362239 C2371.15058,534.790526 2371.44726,539.212261 2370.73762,543.83279 C2370.66781,544.287341 2369.96692,546.518766 2368.53549,548.631377 C2367.03681,550.843234 2364.79401,552.94262 2364.22445,553.547603 C2363.68088,554.124992 2359.21088,555.098809 2359.54302,553.547603 C2359.80399,552.328763 2364.76495,548.7574 2365.18964,547.57705 C2366.15483,544.89448 2367.24227,541.982269 2366.19253,539.587719 C2365.14279,537.19317 2364.99591,532.672597 2353.94108,528.362239 C2346.57119,525.488668 2337.58443,525.688445 2326.98082,528.96157 C2327.88676,535.716176 2327.88676,540.056408 2326.98082,541.982269 C2326.01066,544.044643 2324.74632,545.90957 2323.18779,547.57705 C2321.28882,549.976044 2319.38584,551.596253 2317.47883,552.437676 C2314.61832,553.699811 2312.9379,553.752037 2310.63636,553.547603 C2308.33483,553.34317 2307.18234,553.149651 2306.4543,551.458423 C2305.72625,549.767195 2305.34703,547.965493 2306.4543,543.83279 C2307.56157,539.700086 2308.77803,538.356335 2310.63636,535.849586 C2311.87526,534.178421 2314.15608,531.882415 2317.47883,528.96157 C2315.69869,526.357485 2314.4874,524.181896 2313.84496,522.434803 C2313.20252,520.687711 2312.53325,517.749227 2311.83717,513.619353 L2300.38303,532.140731 C2301.92037,537.701784 2302.56502,541.599137 2302.31699,543.83279 C2301.76725,548.783328 2298.35198,552.676794 2296.81541,554.507891 C2294.73994,556.981184 2290.2224,560.520177 2283.38568,561.194836 C2278.82787,561.644609 2276.50628,561.100061 2276.42093,559.561193 C2275.87335,558.27419 2276.42624,556.26966 2278.07959,553.547603 C2279.73295,550.825547 2284.00701,545.512694 2290.90177,537.609045 C2286.8663,528.631941 2284.84857,523.573861 2284.84857,522.434803 L2284.84857,520.248419 C2280.71956,529.897534 2277.38697,537.14215 2274.85078,541.982269 C2272.3146,546.822387 2267.8732,553.798794 2261.52658,562.911491 C2258.30042,563.173942 2256.26095,562.601724 2255.40816,561.194836 C2254.55538,559.787948 2254.03853,556.142876 2253.85763,550.25962 C2248.91723,559.483938 2244.94329,564.381385 2241.93582,564.951961 C2237.42461,565.807824 2232.63752,560.236275 2231.46522,554.507891 C2230.68369,550.688969 2230.93918,543.233249 2232.2317,532.140731 L2222.22321,537.609045 C2224.73952,553.332906 2224.34683,563.708144 2221.04512,568.734759 C2218.92399,571.964027 2214.12708,577.088189 2205.53676,580.234253 C2196.94644,583.380317 2188.97125,586.113598 2182.92962,581.67813 C2176.88798,577.242662 2177.93641,566.573064 2182.92962,557.923341 C2186.25842,552.156859 2195.49358,545.385427 2210.6351,537.609045 C2207.43641,535.095271 2205.07105,533.2725 2203.53901,532.140731 C2187.05586,519.964049 2176.13335,510.265079 2173.44869,502.553481 C2168.86027,489.373377 2175.77427,479.342444 2185.72179,469.31581 C2190.02077,464.98265 2197.05586,458.522853 2208.59625,451.833072 C2212.77095,449.413064 2220.39394,445.752221 2231.46522,440.850544 C2245.72215,434.916132 2258.0679,432.837316 2268.50247,434.614098 Z M2215.29705,541.725832 C2213.85752,542.630075 2200.16938,549.751157 2195.81666,555.36856 C2191.46395,560.985962 2190.22141,567.574062 2192.14472,570.918577 C2194.06803,574.263092 2200.99113,571.094052 2204.01145,569.618763 C2208.99108,567.186437 2211.5383,562.856784 2213.25053,560.289525 C2217.38154,554.095647 2216.73657,540.821589 2215.29705,541.725832 Z M2293.12976,543.212036 C2292.66064,543.608414 2290.211,546.771687 2288.96717,548.463493 C2287.00011,551.139014 2284.69295,553.014005 2284.51752,553.477764 C2284.09798,554.586829 2289.46917,550.86852 2291.53403,548.463493 C2293.59888,546.058467 2293.59888,542.815659 2293.12976,543.212036 Z M2254.67952,517.98359 C2253.85126,518.183704 2249.84486,520.187855 2247.719,522.93836 C2246.30176,524.77203 2244.61643,528.302885 2242.66301,533.530926 C2241.39333,538.215251 2240.75849,541.649206 2240.75849,543.83279 C2240.75849,547.108165 2241.25334,551.455432 2242.66301,552.88314 C2244.07268,554.310847 2243.79576,553.217419 2245.92143,549.0618 C2247.33855,546.291387 2249.2277,541.748575 2251.58888,535.433365 C2254.13173,527.952961 2255.59626,523.122447 2255.98248,520.941823 C2256.56182,517.670888 2255.50777,517.783475 2254.67952,517.98359 Z M2319.65014,533.034803 C2319.09461,533.588288 2316.05545,536.363977 2314.52623,539.084094 C2312.99702,541.80421 2311.13118,545.324177 2312.44533,545.923982 C2313.75947,546.523788 2317.52277,543.450169 2318.86422,541.06405 C2320.20566,538.677931 2320.20566,532.481318 2319.65014,533.034803 Z" transform="translate(-2172 -434)"/>
</svg>
