<svg xmlns="http://www.w3.org/2000/svg" width="199" height="179" viewBox="0 0 199 179">
  <path fill="#585858" fill-rule="evenodd" d="M153.381694,66.5632173 L98.7810326,177.328519 L45.0500749,66.5632173 L153.381694,66.5632173 Z M198.265113,66.5542351 L102.125584,177.252101 L157.299015,66.5542351 L198.265113,66.5542351 Z M40.9793306,66.5542351 L95.4114239,177.252101 L13.57,82.286 L0.195,66.554 L40.9793306,66.5542351 Z M99.1380817,0 L153.378202,63.4705589 L45.230797,63.4705589 L99.1380817,0 Z M157.105263,7.2824307 L198.391267,63.4473612 L157.390853,63.4473612 L157.105263,7.2824307 Z M41.2860043,7.2824307 L41.0392386,63.4473612 L0,63.4473612 L41.2860043,7.2824307 Z M102.636586,8.97877328e-10 L154.008743,5.98319328 L154.729996,60.5999775 L102.636586,8.97877328e-10 Z M95.7741785,8.97877328e-10 L44.2324308,60.1524705 L44.2324308,5.98319328 L95.7741785,8.97877328e-10 Z" transform="translate(0 .23)"/>
</svg>
