<svg xmlns="http://www.w3.org/2000/svg" width="200" height="199" viewBox="0 0 200 199">
  <path fill="#585858" fill-rule="evenodd" d="M200,0 L200,199 L-2.13162821e-12,199 L-2.13162821e-12,0 L200,0 Z M161.313394,91.6747847 C154.710106,90.0508896 145.345829,90.9032418 141.75712,92.1427749 C134.161297,94.7663581 129.394577,100.404645 128.198471,102.508521 C125.62189,107.040567 125.034279,112.062735 124.972704,116.855736 C124.864647,125.26697 130.008097,131.339967 132.192197,133.597084 C133.42306,134.869096 135.812222,136.842345 138.936912,138.702501 C140.67231,139.735599 142.748116,140.618801 144.707311,141.602211 C152.211865,145.369091 160.657318,148.842839 162.121168,150.119085 C164.655292,152.32844 165.789165,154.481391 165.789165,157.863741 C165.789165,161.246092 163.881855,163.324809 162.121168,164.699639 C158.829655,167.269814 153.47546,167.406921 151.432931,167.406921 C149.340996,167.406921 144.579788,166.83924 140.060817,163.470823 C138.558512,162.351013 136.495814,159.882352 133.872721,156.064841 L133.872721,156.064841 L119.339359,164.699639 L119.683062,165.260481 C123.128496,170.815418 126.825942,174.765942 130.775399,177.112055 C134.561077,179.360876 139.017319,181.576139 144.707311,182.467658 C148.218366,183.017777 152.691539,183.026097 156.493321,182.94791 C166.456247,182.743014 171.58648,178.832516 174.720802,176.333245 C180.634435,171.617782 182.859513,166.445022 183.496102,157.863741 C183.747437,154.475706 182.52282,144.749324 176.717443,139.236285 C167.81885,130.785792 153.401925,126.454742 150.885066,124.829144 C146.726227,122.143016 144.410639,121.282937 143.061937,118.053424 C141.713235,114.82391 142.842972,110.975026 144.707311,108.807879 C146.571651,106.640732 149.42927,106.205078 152.690441,106.205078 C155.951613,106.205078 157.70451,107.16337 159.654542,108.520051 C160.954562,109.424504 162.410581,111.254457 164.022597,114.009909 L164.022597,114.009909 L177.967514,105.051859 L177.663251,104.592593 C175.543969,101.418508 173.64641,99.1007197 171.970575,97.6392271 C170.8082,96.6255222 167.446846,93.1831369 161.313394,91.6747847 Z M115.009085,90.780771 L45.5951381,90.780771 L45.5951381,107.734812 L71.3772204,107.734812 L71.3772204,182.983371 L89.5014996,182.983371 L89.5014996,107.734812 L115.009085,107.734812 L115.009085,90.780771 Z"/>
</svg>
