<svg xmlns="http://www.w3.org/2000/svg" width="251" height="320" viewBox="0 0 251 320">
  <path fill="#585858" fill-rule="evenodd" d="M91.3,286.2475 C99.17875,286.2475 103.46875,289.3 103.46875,297.59125 L103.46875,297.59125 L103.46875,299.2 L95.63125,299.2 C95.63125,295.4875 95.0125,293.0125 91.7125,293.0125 L91.7125,293.0125 L91.3,293.0125 C87.175,293.0125 86.5975,296.51875 86.5975,302.0875 L86.5975,302.0875 L86.5975,303.7375 C86.5975,309.30625 87.175,312.8125 91.50625,312.8125 L91.50625,312.8125 L91.91875,312.8125 C93.3625,312.8125 94.64125,312.52375 95.59,311.9875 L95.59,311.9875 L95.59,307.8625 L91.7125,307.8625 L91.7125,301.0975 L103.4275,301.0975 L103.4275,315.7825 C100.82875,317.845 97.4875,319.5775 91.7125,319.5775 C82.6375,319.5775 78.63625,314.875 78.63625,303.7375 L78.63625,303.7375 L78.63625,302.0875 C78.63625,290.95 82.6375,286.2475 91.3,286.2475 Z M126.01875,286.825 L126.01875,308.56375 C126.01875,311.12125 126.72,312.8125 130.14375,312.8125 C133.5675,312.8125 134.26875,311.12125 134.26875,308.56375 L134.26875,308.56375 L134.26875,286.825 L142.10625,286.825 L142.10625,308.77 C142.10625,315.535 139.46625,319.5775 130.14375,319.5775 C120.82125,319.5775 118.18125,315.535 118.18125,308.77 L118.18125,308.77 L118.18125,286.825 L126.01875,286.825 Z M18.76875,286.825 L26.44125,319 L18.0675,319 L16.7475,312.4825 L10.065,312.4825 L8.78625,319 L0.37125,319 L8.04375,286.825 L18.76875,286.825 Z M48.125,286.825 L56.99375,304.5625 L56.7875,298.375 L56.7875,286.825 L64.2125,286.825 L64.2125,319 L55.9625,319 L47.09375,301.2625 L47.3,307.45 L47.3,319 L39.875,319 L39.875,286.825 L48.125,286.825 Z M164.8625,286.825 L164.8625,312.235 L176.20625,312.235 L176.20625,319 L157.025,319 L157.025,286.825 L164.8625,286.825 Z M206.59375,286.825 L214.26625,319 L205.8925,319 L204.5725,312.4825 L197.89,312.4825 L196.61125,319 L188.19625,319 L195.86875,286.825 L206.59375,286.825 Z M239.014408,286.825675 C244.404057,286.859364 250.3875,288.1813 250.3875,296.9725 L250.3875,296.9725 L250.3875,297.7975 C250.3875,303.03625 248.28375,305.59375 245.4375,306.8725 L245.4375,306.8725 L250.3875,319 L241.93125,319 L237.72375,307.945 L235.5375,307.945 L235.5375,319 L227.7,319 L227.7,286.825 Z M13.40625,295.9 L11.42625,305.7175 L15.38625,305.7175 L13.40625,295.9 Z M201.23125,295.9 L199.25125,305.7175 L203.21125,305.7175 L201.23125,295.9 Z M239.12625,293.59 L235.5375,293.59 L235.5375,301.18 L239.12625,301.18 C240.6525,301.18 242.4675,300.6025 242.4675,297.55 L242.4675,297.55 L242.4675,297.22 C242.4675,294.1675 240.6525,293.59 239.12625,293.59 L239.12625,293.59 Z M123.329543,8.52651283e-14 L250.207145,45.5628831 L231.19052,208.185054 L125.103572,268.305876 L19.6923299,208.185054 L4.9595883e-12,45.5628831 L123.329543,8.52651283e-14 Z M125.103572,24.6120331 L47.6617422,194.987928 L75.4734343,194.987928 L90.8859528,156.375362 L160.352239,156.375362 L178.454618,194.987928 L204.827362,194.987928 L125.103572,24.6120331 Z M125.103572,79.1709464 L149.674066,134.152938 L102.434187,134.152938 L125.103572,79.1709464 Z"/>
</svg>
