<svg xmlns="http://www.w3.org/2000/svg" width="237" height="320" viewBox="0 0 237 320">
  <path fill="#585858" fill-rule="evenodd" d="M61.75,279.3 C71.3,279.3 76.25,283 76.25,293.05 L76.25,293.05 L76.25,295 L66.75,295 C66.75,290.5 66,287.5 62.25,287.5 L62.25,287.5 L61.75,287.5 C57,287.5 56.3,291.75 56.3,298.5 L56.3006196,300.841057 C56.3248923,307.392847 57.0805085,311.5 61.75,311.5 L61.75,311.5 L62.25,311.5 C65.6,311.5 66.75,309 66.75,305.5 L66.75,305.5 L76.25,305.5 L76.25,305.95 C76.25,316 71.3,319.7 61.75,319.7 C51.25,319.7 46.65,314 46.65,300.5 L46.65,300.5 L46.65,298.5 C46.65,285 51.25,279.3 61.75,279.3 Z M119,279.3 C128.85,279.3 133.25,283.5 133.25,292.95 L133.25,292.95 L133.25,294 L123.75,294 C123.75,289.6 122.5,287.5 119,287.5 L119,287.5 L118.5,287.5 C115.75,287.5 114.4,289.05 114.4,291.05 L114.4,291.05 L114.4,291.25 C114.4,293.65 115.2,294.85 120.45,295.55 C128.95,296.7 133.5,299.4 133.5,307.05 L133.5,307.05 L133.5,307.6 C133.5,315.25 128.55,319.7 119,319.7 C109.5,319.7 104.5,315.75 104.5,305.95 L104.5,305.95 L104.5,305.5 L114,305.5 C114,309.8 115.5,311.5 118.75,311.5 L118.75,311.5 L119.25,311.5 C122.5,311.5 123.85,309.75 123.85,307.85 L123.85,307.85 L123.85,307.65 C123.85,305.4 122.8,304.05 117.55,303.35 C109.05,302.2 104.75,299.5 104.75,291.85 L104.75,291.85 L104.75,291.3 C104.75,284.05 109.6,279.3 119,279.3 Z M176,279.3 C185.85,279.3 190.25,283.5 190.25,292.95 L190.25,292.95 L190.25,294 L180.75,294 C180.75,289.6 179.5,287.5 176,287.5 L176,287.5 L175.5,287.5 C172.75,287.5 171.4,289.05 171.4,291.05 L171.4,291.05 L171.4,291.25 C171.4,293.65 172.2,294.85 177.45,295.55 C185.95,296.7 190.5,299.4 190.5,307.05 L190.5,307.05 L190.5,307.6 C190.5,315.25 185.55,319.7 176,319.7 C166.5,319.7 161.5,315.75 161.5,305.95 L161.5,305.95 L161.5,305.5 L171,305.5 C171,309.8 172.5,311.5 175.75,311.5 L175.75,311.5 L176.25,311.5 C179.5,311.5 180.85,309.75 180.85,307.85 L180.85,307.85 L180.85,307.65 C180.85,305.4 179.8,304.05 174.55,303.35 C166.05,302.2 161.75,299.5 161.75,291.85 L161.75,291.85 L161.75,291.3 C161.75,284.05 166.6,279.3 176,279.3 Z M236.543572,-5.7411853e-12 L217.305144,241.717413 L118.271786,267.881064 L21.322496,241.717413 L1.42108547e-13,-5.7411853e-12 L236.543572,-5.7411853e-12 Z M191.137604,51 L45,51 L47.3501028,81.869995 L157.706222,81.869995 L157.706222,112.82862 L84.8149333,112.82862 L84.8149333,140.728208 L152.441437,140.728208 L152.441437,177.342707 L118.068802,187.127586 L84.8149333,179.794988 L84.8149333,155.088601 L53.1413659,155.088601 L57.1401776,202.731438 L116.737885,217.68585 L176.261124,202.731438 L191.137604,51 Z"/>
</svg>
