<svg xmlns="http://www.w3.org/2000/svg" width="283" height="336" viewBox="0 0 283 336">
  <path fill="#585858" fill-rule="evenodd" d="M106.025,302.2475 C113.90375,302.2475 118.19375,305.3 118.19375,313.59125 L118.19375,313.59125 L118.19375,315.2 L110.35625,315.2 C110.35625,311.4875 109.7375,309.0125 106.4375,309.0125 L106.4375,309.0125 L106.025,309.0125 C101.9,309.0125 101.3225,312.51875 101.3225,318.0875 L101.3225,318.0875 L101.3225,319.7375 C101.3225,325.30625 101.9,328.8125 106.23125,328.8125 L106.23125,328.8125 L106.64375,328.8125 C108.0875,328.8125 109.36625,328.52375 110.315,327.9875 L110.315,327.9875 L110.315,323.8625 L106.4375,323.8625 L106.4375,317.0975 L118.1525,317.0975 L118.1525,331.7825 C115.55375,333.845 112.2125,335.5775 106.4375,335.5775 C97.3625,335.5775 93.36125,330.875 93.36125,319.7375 L93.36125,319.7375 L93.36125,318.0875 C93.36125,306.95 97.3625,302.2475 106.025,302.2475 Z M141.22625,302.825 L141.22625,335 L133.38875,335 L133.38875,302.825 L141.22625,302.825 Z M177.45875,302.825 L177.45875,309.59 L170.24,309.59 L170.24,335 L162.4025,335 L162.4025,309.59 L155.18375,309.59 L155.18375,302.825 L177.45875,302.825 Z M137.340824,1.30121323 C139.298703,-0.482667449 142.333084,-0.433313509 144.231488,1.45517173 L144.231488,1.45517173 L281.383986,137.884129 C281.390236,137.890346 281.396469,137.896579 281.402687,137.902829 C283.350137,139.860608 283.341765,143.026422 281.383986,144.973873 L281.383986,144.973873 L144.231488,281.402829 L144.231488,281.402829 L144.050245,281.57458 C142.082933,283.348052 139.048857,283.282606 137.160495,281.384079 L137.160495,281.384079 L1.45507847,144.955122 C-0.485026158,143.004673 -0.485026158,139.853328 1.45507847,137.902879 L1.45507847,137.902879 L90.576,48.305 L91.963,49.658 L120.358703,78.2723932 C118.941287,81.1286185 118.112743,84.3332779 118.033432,87.7247729 L118.027159,88.2618012 C118.027159,97.9991859 124.202712,106.283056 132.82228,109.353061 L132.82228,109.353061 L132.82228,181.474017 C124.202712,184.544023 118.027159,192.827892 118.027159,202.565277 C118.027159,214.916421 127.96302,224.929001 140.219526,224.929001 C152.476031,224.929001 162.411892,214.916421 162.411892,202.565277 C162.411892,193.459151 157.011088,185.624191 149.261318,182.135801 L149.261318,182.135801 L149.261351,108.691263 C149.555176,108.559004 149.845623,108.420496 150.132528,108.275909 L150.132528,108.275909 L177.371892,135.727065 C176.207896,138.443378 175.562924,141.438413 175.562924,144.585253 C175.562924,156.936397 185.498785,166.948977 197.755291,166.948977 C210.011797,166.948977 219.947658,156.936397 219.947658,144.585253 C219.947658,132.23411 210.011797,122.22153 197.755291,122.22153 C194.649407,122.22153 191.692544,122.864488 189.00862,124.02553 L189.00862,124.02553 L161.087894,95.8886295 C161.944676,93.5084879 162.411892,90.940128 162.411892,88.2618012 C162.411892,75.9106578 152.476031,65.8980777 140.219526,65.8980777 C137.5617,65.8980777 135.013001,66.3689092 132.651082,67.2323189 L132.651082,67.2323189 L103.571638,37.9290006 L102.255,36.564 L137.160495,1.47392211 L137.160495,1.47392211 Z"/>
</svg>
