<svg xmlns="http://www.w3.org/2000/svg" width="237" height="319" viewBox="0 0 237 319">
  <path fill="#585858" fill-rule="evenodd" d="M24,280 L24,295 L33.5,295 L33.5,280 L43,280 L43,319 L33.5,319 L33.5,303.2 L24,303.2 L24,319 L14.5,319 L14.5,280 L24,280 Z M98.25,280 L98.25,288.2 L89.5,288.2 L89.5,319 L80,319 L80,288.2 L71.25,288.2 L71.25,280 L98.25,280 Z M140.65,280 L146.25,302.5 L151.85,280 L166,280 L166,319 L156.5,319 L156.5,304 L156.75,296.5 L151.15,319 L141.35,319 L135.75,296.5 L136,304 L136,319 L126.5,319 L126.5,280 L140.65,280 Z M205.5,280 L205.5,310.8 L219.25,310.8 L219.25,319 L196,319 L196,280 L205.5,280 Z M236.543572,0 L217.305144,241.717413 L118.271786,267.881064 L21.322496,241.717413 L0,0 L236.543572,0 Z M191.635812,50.6026883 L46.1286352,50.6026883 L53.3597758,140.569396 L155.375836,140.569396 L155.375836,175.692626 L118.271786,184.166559 L85.4238233,175.692626 L85.4238233,154.438961 L53.3597758,154.438961 L57.2989991,199.676935 L118.271786,216.090312 L181.356987,199.676935 L188.813129,111.245686 L80.2631301,111.245686 L77.3970519,77.7256036 L191.635812,77.7256036 L191.635812,50.6026883 Z"/>
</svg>
