<svg xmlns="http://www.w3.org/2000/svg" width="254" height="320" viewBox="0 0 254 320">
  <path fill="#585858" fill-rule="evenodd" d="M20.83125,286.825 L20.83125,309.1825 C20.83125,315.7825 17.86125,319.5775 10.84875,319.5775 C3.42375,319.5775 0.86625,315.7825 0.86625,309.1 L0.86625,309.1 L0.86625,307.8625 L8.29125,307.8625 C8.29125,311.08 8.70375,312.8125 10.6425,312.8125 C12.58125,312.8125 12.99375,311.08 12.99375,308.275 L12.99375,308.275 L12.99375,286.825 L20.83125,286.825 Z M117.74,286.2475 C125.86625,286.2475 129.49625,289.7125 129.49625,297.50875 L129.49625,297.50875 L129.49625,298.375 L121.65875,298.375 C121.65875,294.745 120.6275,293.0125 117.74,293.0125 L117.74,293.0125 L117.3275,293.0125 C115.05875,293.0125 113.945,294.29125 113.945,295.94125 L113.945,295.94125 L113.945,296.10625 C113.945,298.08625 114.605,299.07625 118.93625,299.65375 C125.94875,300.6025 129.7025,302.83 129.7025,309.14125 L129.7025,309.14125 L129.7025,309.595 C129.7025,315.90625 125.61875,319.5775 117.74,319.5775 C109.9025,319.5775 105.7775,316.31875 105.7775,308.23375 L105.7775,308.23375 L105.7775,307.8625 L113.615,307.8625 C113.615,311.41 114.8525,312.8125 117.53375,312.8125 L117.53375,312.8125 L117.94625,312.8125 C120.6275,312.8125 121.74125,311.36875 121.74125,309.80125 L121.74125,309.80125 L121.74125,309.63625 C121.74125,307.78 120.875,306.66625 116.54375,306.08875 C109.53125,305.14 105.98375,302.9125 105.98375,296.60125 L105.98375,296.60125 L105.98375,296.1475 C105.98375,290.16625 109.985,286.2475 117.74,286.2475 Z M146.30875,286.2475 C154.1875,286.2475 158.27125,289.3 158.27125,297.59125 L158.27125,297.59125 L158.27125,299.2 L150.43375,299.2 C150.43375,295.4875 149.815,293.0125 146.72125,293.0125 L146.72125,293.0125 L146.30875,293.0125 C142.39,293.0125 141.8125,296.51875 141.8125,302.0875 L141.813112,304.044744 C141.835035,309.434909 142.462569,312.8125 146.30875,312.8125 L146.30875,312.8125 L146.72125,312.8125 C149.485,312.8125 150.43375,310.75 150.43375,307.8625 L150.43375,307.8625 L158.27125,307.8625 L158.27125,308.23375 C158.27125,316.525 154.1875,319.5775 146.30875,319.5775 C137.64625,319.5775 133.85125,314.875 133.85125,303.7375 L133.85125,303.7375 L133.85125,302.0875 C133.85125,290.95 137.64625,286.2475 146.30875,286.2475 Z M42.51125,286.825 L50.18375,319 L41.81,319 L40.49,312.4825 L33.8075,312.4825 L32.52875,319 L24.11375,319 L31.78625,286.825 L42.51125,286.825 Z M58.9525,286.825 L63.61375,309.925 L68.23375,286.825 L76.64875,286.825 L68.97625,319 L58.25125,319 L50.57875,286.825 L58.9525,286.825 Z M95.44125,286.825 L103.11375,319 L94.74,319 L93.42,312.4825 L86.7375,312.4825 L85.45875,319 L77.04375,319 L84.71625,286.825 L95.44125,286.825 Z M174.641908,286.825675 C180.031557,286.859364 186.015,288.1813 186.015,296.9725 L186.015,296.9725 L186.015,297.7975 C186.015,303.03625 183.91125,305.59375 181.065,306.8725 L181.065,306.8725 L186.015,319 L177.55875,319 L173.35125,307.945 L171.165,307.945 L171.165,319 L163.3275,319 L163.3275,286.825 Z M199.115,286.825 L199.115,319 L191.2775,319 L191.2775,286.825 L199.115,286.825 Z M216.310658,286.825675 C221.700307,286.859364 227.68375,288.1813 227.68375,296.9725 L227.68375,296.9725 L227.68375,297.7975 C227.68375,306.7075 221.5375,307.945 216.0925,307.945 L216.0925,307.945 L212.83375,307.945 L212.83375,319 L204.99625,319 L204.99625,286.825 Z M252.9525,286.825 L252.9525,293.59 L245.73375,293.59 L245.73375,319 L237.89625,319 L237.89625,293.59 L230.6775,293.59 L230.6775,286.825 L252.9525,286.825 Z M37.14875,295.9 L35.16875,305.7175 L39.12875,305.7175 L37.14875,295.9 Z M90.07875,295.9 L88.09875,305.7175 L92.05875,305.7175 L90.07875,295.9 Z M174.75375,293.59 L171.165,293.59 L171.165,301.18 L174.75375,301.18 C176.28,301.18 178.095,300.6025 178.095,297.55 L178.095,297.55 L178.095,297.22 C178.095,294.1675 176.28,293.59 174.75375,293.59 L174.75375,293.59 Z M216.4225,293.59 L212.83375,293.59 L212.83375,301.18 L216.4225,301.18 C217.94875,301.18 219.76375,300.6025 219.76375,297.55 L219.76375,297.55 L219.76375,297.22 C219.76375,294.1675 217.94875,293.59 216.4225,293.59 L216.4225,293.59 Z M254,0 L254,252 L1,252 L1,0 L254,0 Z M138.472473,116.090682 L114.281873,116.090682 C114.161684,138.866435 114.161684,154.509001 114.281873,163.018379 C114.565678,183.111849 115.554164,196.070793 114.281873,201.907982 C113.753288,204.333093 112.547676,207.774613 110.071164,209.295374 C106.360198,211.574181 100.981675,211.33358 100.251231,211.261829 C96.1553695,210.859494 91.5838156,206.610361 86.5365691,198.514428 L86.5365691,198.514428 L66.6835786,211.261829 C76.3215993,225.590414 87.5108167,232.754707 100.251231,232.754707 C103.515568,232.754707 118.461612,232.132367 127.5,224.93158 C135.710627,218.390262 138.214713,205.547684 138.472473,199.409102 C138.942613,188.212659 138.942613,160.439852 138.472473,116.090682 L138.472473,116.090682 Z M205.061443,116.090682 C196.708284,114.034292 184.862473,115.113653 180.322757,116.683313 C170.714041,120.005639 164.68414,127.14558 163.171066,129.809785 C159.911691,135.548859 159.168363,141.908589 159.090471,147.978118 C158.953778,158.62953 165.460242,166.319958 168.223129,169.178217 C169.780172,170.789006 172.802461,173.287793 176.755193,175.643368 C178.950472,176.951613 181.576367,178.070039 184.054749,179.315362 C193.54801,184.085483 204.231507,188.484399 206.083278,190.100549 C209.288944,192.898326 210.723294,195.624675 210.723294,199.907853 C210.723294,204.191031 208.310546,206.823377 206.083278,208.564368 C201.919513,211.819061 195.146457,211.992685 192.562658,211.992685 C189.91636,211.992685 183.893432,211.273812 178.176933,207.008278 C176.276518,205.590227 173.667204,202.464084 170.348992,197.629848 L170.348992,197.629848 L151.964289,208.564368 L152.33856,209.176749 C156.714246,216.262607 161.411686,221.297891 166.43088,224.282602 C171.219762,227.130355 176.856908,229.935613 184.054749,231.064572 C188.496233,231.761205 194.154797,231.77174 198.964051,231.67273 C211.567152,231.413264 218.056897,226.461277 222.021814,223.29637 C229.50256,217.32503 232.317284,210.774601 233.122568,199.907853 C233.440508,195.617477 231.891368,183.300651 224.547566,176.319315 C213.290845,165.618189 195.053435,160.133644 191.869609,158.075096 C186.608677,154.673568 183.679459,153.584423 181.973351,149.494788 C180.267243,145.405152 181.69636,140.531189 184.054749,137.786862 C186.413138,135.042536 190.028026,134.490852 194.153408,134.490852 C198.27879,134.490852 200.496206,135.704368 202.962995,137.422376 C204.607521,138.567714 206.449384,140.885041 208.488585,144.374357 L208.488585,144.374357 L226.128905,133.030495 L225.802978,132.537426 C223.098306,128.472531 220.678239,125.507937 218.542777,123.643644 C217.072373,122.359958 212.820261,118.000756 205.061443,116.090682 Z"/>
</svg>
