<svg xmlns="http://www.w3.org/2000/svg" width="252" height="323" viewBox="0 0 252 323">
  <path fill="#585858" fill-rule="evenodd" d="M2526.47625,1033.2475 C2535.13875,1033.2475 2539.14,1037.95 2539.14,1049.0875 L2539.14,1049.0875 L2539.14,1050.7375 C2539.14,1058.45125 2537.20125,1063.07125 2533.15875,1065.21625 L2533.15875,1065.21625 L2535.13875,1070.125 L2529.1575,1070.125 L2527.755,1066.53625 C2527.3425,1066.53625 2526.88875,1066.5775 2526.47625,1066.5775 C2517.81375,1066.5775 2513.8125,1061.875 2513.8125,1050.7375 L2513.8125,1050.7375 L2513.8125,1049.0875 C2513.8125,1037.95 2517.81375,1033.2475 2526.47625,1033.2475 Z M2499.525,1033.825 L2499.525,1056.1825 C2499.525,1062.7825 2496.555,1066.5775 2489.5425,1066.5775 C2482.1175,1066.5775 2479.56,1062.7825 2479.56,1056.1 L2479.56,1056.1 L2479.56,1054.8625 L2486.985,1054.8625 C2486.985,1058.08 2487.3975,1059.8125 2489.33625,1059.8125 C2491.275,1059.8125 2491.6875,1058.08 2491.6875,1055.275 L2491.6875,1055.275 L2491.6875,1033.825 L2499.525,1033.825 Z M2561.265,1033.825 L2561.265,1055.56375 C2561.265,1058.12125 2561.96625,1059.8125 2565.39,1059.8125 C2568.81375,1059.8125 2569.515,1058.12125 2569.515,1055.56375 L2569.515,1055.56375 L2569.515,1033.825 L2577.3525,1033.825 L2577.3525,1055.77 C2577.3525,1062.535 2574.7125,1066.5775 2565.39,1066.5775 C2556.0675,1066.5775 2553.4275,1062.535 2553.4275,1055.77 L2553.4275,1055.77 L2553.4275,1033.825 L2561.265,1033.825 Z M2612.55375,1033.825 L2612.55375,1040.59 L2600.17875,1040.59 L2600.17875,1046.2 L2610.49125,1046.2 L2610.49125,1052.965 L2600.17875,1052.965 L2600.17875,1059.235 L2612.55375,1059.235 L2612.55375,1066 L2592.34125,1066 L2592.34125,1033.825 L2612.55375,1033.825 Z M2638.65066,1033.82568 C2644.04031,1033.85936 2650.02375,1035.1813 2650.02375,1043.9725 L2650.02375,1043.9725 L2650.02375,1044.7975 C2650.02375,1050.03625 2647.92,1052.59375 2645.07375,1053.8725 L2645.07375,1053.8725 L2650.02375,1066 L2641.5675,1066 L2637.36,1054.945 L2635.17375,1054.945 L2635.17375,1066 L2627.33625,1066 L2627.33625,1033.825 Z M2670.58125,1033.825 L2675.036,1046.446 L2679.49125,1033.825 L2688.07125,1033.825 L2678.955,1056.1 L2678.955,1066 L2671.1175,1066 L2671.1175,1056.1 L2662.00125,1033.825 L2670.58125,1033.825 Z M2526.6825,1040.0125 L2526.27,1040.0125 C2522.5575,1040.0125 2521.77375,1043.51875 2521.77375,1049.0875 L2521.77375,1049.0875 L2521.77375,1050.7375 C2521.77375,1055.6875 2522.3925,1058.9875 2525.07375,1059.68875 L2525.07375,1059.68875 L2523.17625,1054.73875 L2528.95125,1054.73875 L2530.1475,1057.75 C2530.93125,1056.1825 2531.17875,1053.74875 2531.17875,1050.7375 L2531.17875,1050.7375 L2531.17875,1049.0875 C2531.17875,1043.51875 2530.395,1040.0125 2526.6825,1040.0125 L2526.6825,1040.0125 Z M2638.7625,1040.59 L2635.17375,1040.59 L2635.17375,1048.18 L2638.7625,1048.18 C2640.28875,1048.18 2642.10375,1047.6025 2642.10375,1044.55 L2642.10375,1044.55 L2642.10375,1044.22 C2642.10375,1041.1675 2640.28875,1040.59 2638.7625,1040.59 L2638.7625,1040.59 Z M2498.27962,784.641525 C2489.14749,811.568184 2487.97239,836.910419 2494.75433,860.668229 C2501.53627,884.426039 2517.20192,907.496626 2541.75129,929.879989 C2572.6392,949.1949 2602.81879,958.59168 2632.29008,958.070327 C2661.76137,957.548974 2688.22877,945.730295 2711.69229,922.614289 C2699.9066,942.729376 2690.27272,955.901132 2682.79066,962.129558 C2655.2239,985.077461 2601.36951,1001.85278 2550.91263,981.429624 C2500.45575,961.006473 2469.85951,906.721006 2467.3067,877.230701 C2466.1312,863.651249 2463.18238,843.178182 2473.48171,818.909479 C2476.55634,811.664615 2484.82231,800.241963 2498.27962,784.641525 Z M2561.88422,761.864361 C2554.86062,783.456665 2553.72634,802.634398 2558.4814,819.39756 C2563.23647,836.160721 2574.19893,852.802593 2591.3688,869.323174 C2612.65758,883.900989 2633.63366,891.005966 2654.29704,890.638107 C2674.96041,890.270248 2696.07355,880.34553 2717.63646,860.863954 C2706.45671,878.654007 2698.24387,889.746377 2692.99793,894.141063 C2673.66988,910.332766 2632.67852,918.282629 2597.30139,903.872354 C2561.92427,889.462079 2541.02676,851.891723 2539.23689,831.083797 C2538.4127,821.502335 2536.34518,807.05684 2543.56641,789.9332 C2545.72215,784.82133 2551.82808,775.46505 2561.88422,761.864361 Z M2615.8166,748 C2611.2271,762.762148 2610.4284,775.42761 2613.4205,785.996386 C2616.4126,796.565162 2623.32408,806.828224 2634.15493,816.785571 C2647.78226,825.377902 2661.09709,829.558105 2674.09943,829.326179 C2687.10176,829.094252 2699.63272,824.204471 2711.69229,814.656834 C2705.35132,823.542966 2700.53034,829.371404 2697.22936,832.14215 C2685.06727,842.350635 2660.45768,848.803012 2638.19679,839.717675 C2615.93589,830.632337 2602.43725,806.483186 2601.31098,793.364282 C2600.79236,787.323397 2599.49139,778.215854 2604.03531,767.419805 C2605.3918,764.196892 2609.31889,757.723624 2615.8166,748 Z" transform="translate(-2466 -748)"/>
</svg>
