<svg xmlns="http://www.w3.org/2000/svg" width="283" height="318" viewBox="0 0 283 318">
  <path fill="#585858" fill-rule="evenodd" d="M3454.965,1033.24869 C3462.84375,1033.24869 3466.9275,1036.30119 3466.9275,1044.59244 L3466.9275,1044.59244 L3466.9275,1046.20119 L3459.09,1046.20119 C3459.09,1042.48869 3458.47125,1040.01369 3455.3775,1040.01369 L3455.3775,1040.01369 L3454.965,1040.01369 C3451.04625,1040.01369 3450.46875,1043.51994 3450.46875,1049.08869 L3450.46875,1049.08869 L3450.46875,1050.73869 C3450.46875,1056.30744 3451.04625,1059.81369 3454.965,1059.81369 L3454.965,1059.81369 L3455.3775,1059.81369 C3458.14125,1059.81369 3459.09,1057.75119 3459.09,1054.86369 L3459.09,1054.86369 L3466.9275,1054.86369 L3466.9275,1055.23494 C3466.9275,1063.52619 3462.84375,1066.57869 3454.965,1066.57869 C3446.3025,1066.57869 3442.5075,1061.87619 3442.5075,1050.73869 L3442.5075,1050.73869 L3442.5075,1049.08869 C3442.5075,1037.95119 3446.3025,1033.24869 3454.965,1033.24869 Z M3344.87691,1033.82686 C3350.26656,1033.86055 3356.25,1035.18249 3356.25,1043.97369 L3356.25,1043.97369 L3356.25,1044.79869 C3356.25,1050.03744 3354.14625,1052.59494 3351.3,1053.87369 L3351.3,1053.87369 L3356.25,1066.00119 L3347.79375,1066.00119 L3343.58625,1054.94619 L3341.4,1054.94619 L3341.4,1066.00119 L3333.5625,1066.00119 L3333.5625,1033.82619 Z M3391.03875,1033.82619 L3391.03875,1040.59119 L3378.66375,1040.59119 L3378.66375,1046.20119 L3388.97625,1046.20119 L3388.97625,1052.96619 L3378.66375,1052.96619 L3378.66375,1059.23619 L3391.03875,1059.23619 L3391.03875,1066.00119 L3370.82625,1066.00119 L3370.82625,1033.82619 L3391.03875,1033.82619 Z M3422.5275,1033.82619 L3430.2,1066.00119 L3421.82625,1066.00119 L3420.50625,1059.48369 L3413.82375,1059.48369 L3412.545,1066.00119 L3404.13,1066.00119 L3411.8025,1033.82619 L3422.5275,1033.82619 Z M3501.84,1033.82619 L3501.84,1040.59119 L3494.62125,1040.59119 L3494.62125,1066.00119 L3486.78375,1066.00119 L3486.78375,1040.59119 L3479.565,1040.59119 L3479.565,1033.82619 L3501.84,1033.82619 Z M3417.165,1042.90119 L3415.185,1052.71869 L3419.145,1052.71869 L3417.165,1042.90119 Z M3344.98875,1040.59119 L3341.4,1040.59119 L3341.4,1048.18119 L3344.98875,1048.18119 C3346.515,1048.18119 3348.33,1047.60369 3348.33,1044.55119 L3348.33,1044.55119 L3348.33,1044.22119 C3348.33,1041.16869 3346.515,1040.59119 3344.98875,1040.59119 L3344.98875,1040.59119 Z M3488.25066,752.791389 C3505.39227,763.186078 3509.16067,793.181562 3500.973,830.882689 C3536.15206,842.286451 3559,860.711875 3559,881.501183 C3559,902.290687 3536.15163,920.716262 3500.97162,932.119295 C3509.15994,969.820127 3505.39146,999.815174 3488.25,1010.20977 C3471.10851,1020.60439 3444.49217,1009.03461 3417.50022,982.736915 C3390.50849,1009.03432 3363.89171,1020.60452 3346.75,1010.20977 C3329.60854,999.815174 3325.84006,969.820127 3334.02745,932.119469 C3298.84837,920.716262 3276,902.290687 3276,881.501183 C3276,860.711875 3298.84794,842.286451 3334.02738,830.883393 C3325.83933,793.181562 3329.60773,763.186078 3346.74934,752.791389 C3363.89105,742.396637 3390.50786,753.966852 3417.50017,780.265273 C3444.4928,753.966566 3471.10916,742.396766 3488.25066,752.791389 Z M3488.64491,934.001189 L3449.61925,940.425101 L3426,971.231642 C3441.63486,985.557384 3452.88851,993.928656 3459.76094,996.34546 C3463.84198,997.780626 3473.26483,1000.87813 3478.94944,999.764364 C3481.54158,999.256496 3484.29155,996.919515 3487.19936,992.75342 C3488.93094,988.348759 3490.04837,985.091847 3490.55165,982.982683 C3491.68635,978.227304 3491.90596,973.64731 3491.98865,969.52702 C3492.12634,962.665508 3491.01176,950.823564 3488.64491,934.001189 L3488.64491,934.001189 Z M3346.93906,934.656677 C3343.29439,953.990882 3342.07634,967.776401 3343.28492,976.013234 C3345.0978,988.368484 3348.83444,1000.68675 3359.32517,999.961516 C3363.5789,999.667453 3372.98257,998.394291 3384.42744,991.473866 C3389.34234,988.501953 3397.68852,981.891272 3409.46598,971.641823 C3403.65201,965.176646 3399.32499,960.147341 3396.4849,956.553907 C3393.64481,952.960473 3389.62566,947.42975 3384.42744,939.961737 C3375.23305,939.244338 3368.34811,938.561894 3363.7726,937.914405 C3359.1971,937.266916 3353.58592,936.181006 3346.93906,934.656677 Z M3433.71846,941.276741 L3400.99091,941.276741 C3404.12526,945.203016 3406.66966,948.385215 3408.62411,950.823337 C3410.57856,953.261459 3413.53719,956.944134 3417.5,961.871362 C3421.10858,957.369483 3423.84332,953.937046 3425.7042,951.574051 C3427.56508,949.211056 3430.2365,945.77862 3433.71846,941.276741 Z M3442.95604,833.001189 L3391.80826,833.001189 C3386.59431,841.400101 3382.35674,848.520558 3379.09554,854.36256 C3375.83434,860.204561 3371.46916,868.881291 3366,880.39275 C3370.85016,891.393753 3374.7173,899.554423 3377.60142,904.874761 C3380.48554,910.195099 3385.22116,917.903908 3391.80826,928.001189 L3391.80826,928.001189 L3442.95604,928.001189 C3449.99398,917.229388 3455.01931,909.067015 3458.03204,903.514068 C3461.04477,897.961122 3464.70075,890.122423 3469,879.997972 C3464.21001,869.983442 3460.32733,862.29162 3457.35196,856.922507 C3454.37659,851.553395 3449.57795,843.579622 3442.95604,833.001189 L3442.95604,833.001189 Z M3358.71469,895.441553 C3356.64074,900.991018 3355.14897,905.181516 3354.23935,908.013046 C3353.32974,910.844576 3352.10491,915.110597 3350.56486,920.811109 C3354.06826,921.888572 3357.39453,922.704577 3360.54365,923.259126 C3363.69277,923.813674 3368.62786,924.452461 3375.34892,925.175488 C3371.32158,918.359786 3368.24822,913.059672 3366.12887,909.275144 C3364.00952,905.490615 3361.53812,900.879419 3358.71469,895.441553 Z M3475.285,895.001189 C3472.99825,899.699654 3470.8597,903.882194 3468.86934,907.548807 C3466.87898,911.21542 3463.5892,917.032881 3459,925.001189 C3464.9024,924.49527 3469.33342,924.082589 3472.29308,923.763145 C3475.25273,923.4437 3479.48837,922.568836 3485,921.13855 C3483.32132,915.169837 3481.89515,910.639923 3480.72149,907.548807 C3479.54782,904.457691 3477.73566,900.275152 3475.285,895.001189 Z M3338.31494,842.965072 C3319.90447,850.593383 3307.82255,856.400552 3302.06917,860.386579 C3293.43911,866.36562 3287.85241,869.872289 3288.36782,880.057213 C3288.88323,890.242138 3294.59228,895.258252 3304.21878,902.864291 C3310.53124,907.851858 3321.63052,912.84648 3337.51664,917.848158 L3338.31494,918.098248 L3351.70868,880.057213 L3338.31494,842.965072 Z M3496.83107,843.001189 L3483,879.34548 L3497.85749,917.001189 C3509.24122,912.528556 3517.00635,909.197805 3521.15289,907.008936 C3525.75066,904.581867 3529.66722,902.118426 3532.59303,899.944146 C3542.91873,892.270724 3545.55411,889.434872 3545.98385,879.34548 C3546.41358,869.256088 3538.20514,864.599839 3528.95251,857.895372 C3522.78409,853.425728 3512.07695,848.461 3496.83107,843.001189 L3496.83107,843.001189 Z M3417.5,854.001189 C3431.03098,854.001189 3442,865.417928 3442,879.501189 C3442,893.58445 3431.03098,905.001189 3417.5,905.001189 C3403.96902,905.001189 3393,893.58445 3393,879.501189 C3393,865.417928 3403.96902,854.001189 3417.5,854.001189 Z M3458.81074,836.17999 C3462.19341,841.966066 3464.81208,846.508961 3466.66675,849.808675 C3468.52142,853.108389 3471.3483,858.253862 3475.14737,865.245094 C3477.53518,859.632699 3479.21925,855.43103 3480.19958,852.640088 C3481.1799,849.849146 3482.42567,845.709712 3483.93688,840.221787 C3478.58038,839.095046 3474.39269,838.288866 3471.37381,837.803249 C3468.35493,837.317632 3464.16724,836.776546 3458.81074,836.17999 Z M3375.34892,836.17999 L3350.56486,839.817322 L3359.25105,863.338447 L3375.34892,836.17999 Z M3471.93937,761.362312 C3467.51242,761.560204 3463.59833,763.33291 3459.75666,765.204729 C3453.23784,768.380965 3441.99796,776.55117 3426.03703,789.715347 L3449.39509,820.565579 L3487.7653,827.438013 C3490.97176,808.861225 3492.15917,795.043464 3491.32754,785.984731 C3490.08011,772.396631 3485.15219,767.774193 3482.14173,763.849285 C3479.13128,759.924378 3475.0244,761.224406 3471.93937,761.362312 Z M3353.05825,762.847908 C3344.99613,767.133881 3343.7001,776.43673 3342.56962,789.214398 C3341.82874,797.588462 3343.05552,810.043356 3346.24995,826.579077 L3346.41694,827.438013 L3384.95687,821.494094 L3408.33745,790.49341 C3396.76306,779.191617 3387.41552,771.711882 3380.29482,768.054204 C3369.61377,762.567687 3361.12037,758.561936 3353.05825,762.847908 Z M3417.08744,799.189224 L3401.3623,820.008457 C3407.85912,819.681322 3412.89331,819.512302 3416.46484,819.501397 L3416.82909,819.500833 L3433.05674,819.500833 L3417.08744,799.189224 Z" transform="translate(-3276 -749)"/>
</svg>
