<svg xmlns="http://www.w3.org/2000/svg" width="427" height="322" viewBox="0 0 427 322">
  <path fill="#585858" fill-rule="evenodd" d="M3019.06812,750.318264 C3052.65278,756.039501 3069.0464,763.97264 3077.99044,787.281662 C3086.93447,810.590684 3078.24101,825.021354 3063.13156,849.26374 C3048.02211,873.506127 3020.55523,886.263565 3004.09974,891.212519 C2988.21169,895.990819 2976.96291,896.155588 2965.47206,896.16127 L2964.23974,896.161473 C2956.8886,896.161473 2946.1015,895.866419 2941.24089,894.953124 C2936.38029,894.039829 2932.6703,892.1599 2930.40529,891.212519 C2920.26589,886.971528 2913.74504,879.837808 2910.84272,869.81136 C2925.8843,878.546877 2938.49428,883.246768 2948.67267,883.911034 C2963.94025,884.907434 2978.46221,881.902981 2997.22944,874.988499 C3015.99666,868.074018 3019.21521,864.011855 3030.69344,854.555826 C3042.17166,845.099797 3043.73618,840.506778 3047.76851,834.066453 C3058.16297,817.464705 3061.55478,801.693833 3054.1424,790.567594 C3046.73002,779.441356 3032.2348,774.938441 3015.36998,774.938441 C3006.87455,774.938441 2997.08722,773.535875 2971.22058,780.276803 C2945.35393,787.01773 2899.80805,804.741585 2866.15214,837.878647 C2852.10121,851.712973 2843.44625,866.093844 2842.95574,881.029601 C2842.66298,889.944043 2844.88179,900.825429 2863.46185,918.502054 C2875.84856,930.28647 2886.32809,939.653088 2894.90044,946.601906 L2910.84272,962.05902 L2955.57551,936.178679 C2962.90018,928.258131 2968.1152,923.135509 2971.22058,920.810814 C2979.21867,914.823407 2985.58458,913.697034 2989.17427,912.916488 C2993.08916,912.065231 2998.00153,912.166083 3001.24652,916.513381 C3002.22207,917.820323 3003.17315,920.858371 3004.09974,925.627525 L3004.09974,942.600032 C3007.43291,938.589401 3010.44923,936.944945 3013.14872,937.666666 C3015.8482,938.388386 3017.82133,941.3668 3019.06812,946.601906 C3014.81258,958.714029 3012.02998,967.801182 3010.72035,973.863367 C3009.41072,979.925552 3008.45098,988.161313 3007.84114,998.570651 C3020.85619,973.353204 3030.26213,954.098443 3036.05897,940.806367 C3041.85581,927.514291 3046.8373,913.778851 3051.00344,899.600047 C3058.88492,897.307664 3064.26075,896.161473 3067.13093,896.161473 C3070.00112,896.161473 3073.02074,897.307664 3076.18979,899.600047 C3073.44893,913.406734 3072.30382,923.227369 3072.75446,929.06195 C3073.20509,934.896532 3075.56028,940.743184 3079.82,946.601906 C3088.82066,935.49383 3094.97418,926.598598 3098.28057,919.916211 C3101.58696,913.233824 3105.31878,902.150276 3109.47602,886.665567 C3116.05244,884.829212 3120.94646,883.911034 3124.15809,883.911034 C3127.36972,883.911034 3131.45302,884.829212 3136.40798,886.665567 C3132.12104,900.337369 3130.21444,910.28664 3130.68819,916.513381 C3131.16194,922.740121 3134.48708,931.435672 3140.66361,942.600032 C3159.58552,936.491128 3174.0017,933.673319 3183.91217,934.146606 C3198.77788,934.856537 3209.59993,937.764885 3224.46152,951.564274 C3239.32311,965.363663 3239.9597,974.855654 3238.43701,984.774388 C3238.28721,985.75016 3236.78329,990.540285 3233.71183,995.075355 C3230.49607,999.823476 3225.68363,1004.33016 3224.46152,1005.62886 C3223.29514,1006.86832 3213.70376,1008.95878 3214.41642,1005.62886 C3214.97639,1003.01241 3225.62128,995.345886 3226.53255,992.812068 C3228.60358,987.053485 3230.93694,980.801937 3228.68448,975.661637 C3226.43201,970.521338 3226.11685,960.817175 3202.39618,951.564274 C3186.58239,945.395673 3167.29926,945.824528 3144.54678,952.850837 C3148.80914,965.070461 3148.80914,974.387494 3144.54678,980.801937 C3142.27452,984.221462 3139.87823,990.597951 3133.38406,995.075355 C3127.69628,998.996793 3114.077,1004.77968 3109.47602,1005.62886 C3104.87503,1006.47803 3102.06463,1004.77459 3100.50244,1001.14408 C3098.94025,997.513579 3098.12654,993.645925 3100.50244,984.774388 C3102.87835,975.902852 3105.48853,973.018266 3109.47602,967.637112 C3112.13434,964.049676 3117.02837,959.120918 3124.15809,952.850837 C3120.3384,947.260733 3117.7393,942.590469 3116.36079,938.840044 C3114.98228,935.089619 3113.54622,928.781675 3112.05262,919.916211 L3087.47514,959.675437 C3090.77386,971.613164 3092.15711,979.979481 3091.62489,984.774388 C3090.4453,995.401543 3083.11707,1003.75952 3079.82,1007.69027 C3075.36661,1012.99961 3065.67318,1020.59665 3051.00344,1022.04492 C3041.22362,1023.01043 3036.24213,1021.84146 3036.05897,1018.53803 C3034.88402,1015.77526 3036.07037,1011.4722 3039.61803,1005.62886 C3043.16568,999.785507 3052.33665,988.380583 3067.13093,971.414082 C3058.47191,952.143234 3054.1424,941.285221 3054.1424,938.840044 L3054.1424,934.146606 L3053.32943,936.043955 C3044.84424,955.812184 3037.96439,970.731512 3032.68987,980.801937 C3027.2479,991.192058 3017.71786,1006.16808 3004.09974,1025.73 C2997.17729,1026.2934 2992.80114,1025.06503 2990.97129,1022.04492 C2989.14144,1019.0248 2988.03243,1011.20004 2987.64426,998.570651 C2977.0435,1018.37219 2968.51651,1028.88537 2962.06329,1030.11021 C2952.38345,1031.94746 2942.11167,1019.9872 2939.59623,1007.69027 C2937.91927,999.492319 2938.46749,983.487374 2941.24089,959.675437 L2919.76537,971.414082 C2925.16471,1005.16797 2924.32209,1027.44015 2917.23751,1038.23062 C2912.68614,1045.16278 2902.39328,1056.16265 2883.96078,1062.9162 L2882.85644,1063.32023 C2864.84544,1069.89829 2848.15642,1075.34676 2835.45199,1066.01572 C2822.48829,1056.49425 2824.73792,1033.59018 2835.45199,1015.02211 C2842.5947,1002.64339 2862.41085,988.107384 2894.90044,971.414082 C2888.03693,966.017849 2882.9615,962.104967 2879.67417,959.675437 C2844.30578,933.536159 2820.86904,912.715702 2815.1085,896.161473 C2805.26298,867.868183 2820.09856,846.335113 2841.44325,824.811272 C2850.66767,815.509422 2865.76307,801.642392 2890.52562,787.281662 C2899.4834,782.08671 2915.84027,774.228101 2939.59623,763.705834 C2970.18772,750.966629 2996.67835,746.504106 3019.06812,750.318264 Z M2904.90371,980.251452 C2901.81489,982.192561 2872.44384,997.479151 2863.1041,1009.53784 C2853.76436,1021.59653 2851.09821,1035.73899 2855.22511,1042.91855 C2859.35201,1050.0981 2874.20709,1043.29523 2880.68788,1040.12828 C2891.37283,1034.90689 2896.83846,1025.61256 2900.51245,1020.10151 C2909.37646,1006.80532 2907.99253,978.310343 2904.90371,980.251452 Z M3071.9116,983.441838 C3070.905,984.292729 3065.64873,991.083221 3062.97981,994.714966 C3058.75904,1000.45842 3053.8085,1004.4834 3053.43207,1005.47893 C3052.53185,1007.85973 3064.05697,999.877756 3068.48758,994.714966 C3072.9182,989.552175 3072.9182,982.590947 3071.9116,983.441838 Z M2989.4078,929.284772 C2987.6306,929.714351 2979.03395,934.016595 2974.47244,939.921012 C2971.43142,943.85729 2967.81516,951.43686 2963.62365,962.65972 C2960.89926,972.715406 2959.53707,980.086962 2959.53707,984.774388 C2959.53707,991.805528 2960.59888,1001.13766 2963.62365,1004.20247 C2966.64841,1007.26729 2966.05421,1004.92006 2970.61533,995.99933 C2973.65608,990.052177 2977.70969,980.300274 2982.77615,966.743623 C2988.2324,950.685689 2991.37489,940.316186 2992.20362,935.635114 C2993.44672,928.613505 2991.18501,928.855194 2989.4078,929.284772 Z M3129.20445,962.899836 C3128.05518,964.098806 3121.76779,970.111551 3118.60416,976.003915 C3115.44054,981.896278 3111.58051,989.521291 3114.2992,990.8206 C3117.01789,992.11991 3124.80337,985.461784 3127.57854,980.29293 C3130.35371,975.124077 3130.35371,961.700867 3129.20445,962.899836 Z" transform="translate(-2812 -749)"/>
</svg>
