<svg xmlns="http://www.w3.org/2000/svg" width="266" height="322" viewBox="0 0 266 322">
  <g fill="none" fill-rule="evenodd" transform="translate(-1363 -745)">
    <path fill="#585858" d="M43.8975,262.2475 C52.02375,262.2475 55.65375,265.7125 55.65375,273.50875 L55.65375,273.50875 L55.65375,274.375 L47.81625,274.375 C47.81625,270.745 46.785,269.0125 43.8975,269.0125 L43.8975,269.0125 L43.485,269.0125 C41.21625,269.0125 40.1025,270.29125 40.1025,271.94125 L40.1025,271.94125 L40.1025,272.10625 C40.1025,274.08625 40.7625,275.07625 45.09375,275.65375 C52.10625,276.6025 55.86,278.83 55.86,285.14125 L55.86,285.14125 L55.86,285.595 C55.86,291.90625 51.77625,295.5775 43.8975,295.5775 C36.06,295.5775 31.935,292.31875 31.935,284.23375 L31.935,284.23375 L31.935,283.8625 L39.7725,283.8625 C39.7725,287.41 41.01,288.8125 43.69125,288.8125 L43.69125,288.8125 L44.10375,288.8125 C46.785,288.8125 47.89875,287.36875 47.89875,285.80125 L47.89875,285.80125 L47.89875,285.63625 C47.89875,283.78 47.0325,282.66625 42.70125,282.08875 C35.68875,281.14 32.14125,278.9125 32.14125,272.60125 L32.14125,272.60125 L32.14125,272.1475 C32.14125,266.16625 36.1425,262.2475 43.8975,262.2475 Z M184.25875,262.2475 C192.1375,262.2475 196.22125,265.3 196.22125,273.59125 L196.22125,273.59125 L196.22125,275.2 L188.38375,275.2 C188.38375,271.4875 187.765,269.0125 184.67125,269.0125 L184.67125,269.0125 L184.25875,269.0125 C180.34,269.0125 179.7625,272.51875 179.7625,278.0875 L179.7625,278.0875 L179.7625,279.7375 C179.7625,285.30625 180.34,288.8125 184.25875,288.8125 L184.25875,288.8125 L184.67125,288.8125 C187.435,288.8125 188.38375,286.75 188.38375,283.8625 L188.38375,283.8625 L196.22125,283.8625 L196.22125,284.23375 C196.22125,292.525 192.1375,295.5775 184.25875,295.5775 C175.59625,295.5775 171.80125,290.875 171.80125,279.7375 L171.80125,279.7375 L171.80125,278.0875 C171.80125,266.95 175.59625,262.2475 184.25875,262.2475 Z M76.9975,262.825 L76.9975,273.88 L83.5975,262.825 L93.085,262.825 L84.2575,275.48875 L93.085,295 L84.4225,295 L79.18375,282.74875 L76.9975,285.925 L76.9975,295 L69.16,295 L69.16,262.825 L76.9975,262.825 Z M125.97875,262.825 L125.97875,269.59 L113.60375,269.59 L113.60375,275.2 L123.91625,275.2 L123.91625,281.965 L113.60375,281.965 L113.60375,288.235 L125.97875,288.235 L125.97875,295 L105.76625,295 L105.76625,262.825 L125.97875,262.825 Z M160.5225,262.825 L160.5225,269.59 L153.30375,269.59 L153.30375,295 L145.46625,295 L145.46625,269.59 L138.2475,269.59 L138.2475,262.825 L160.5225,262.825 Z M217.565,262.825 L217.565,275.2 L225.4025,275.2 L225.4025,262.825 L233.24,262.825 L233.24,295 L225.4025,295 L225.4025,281.965 L217.565,281.965 L217.565,295 L209.7275,295 L209.7275,262.825 L217.565,262.825 Z M205.022766,89.0002568 L132.038968,237.102177 L60.2176881,89.0002568 L205.022766,89.0002568 Z M265.017688,88.9882469 L136.509575,237 L210.258985,88.9882469 L265.017688,88.9882469 Z M54.7763916,88.9882469 L127.534868,237 L18.128,110.01 L0.26,88.988 L54.7763916,88.9882469 Z M132.51623,0 L205.018099,84.8651294 L60.4592563,84.8651294 L132.51623,0 Z M210,9.73718262 L265.186317,84.8341121 L210.381743,84.8341121 L210,9.73718262 Z M55.1863173,9.73718262 L54.8564697,84.8341121 L0,84.8341121 L55.1863173,9.73718262 Z M137.192622,1.20053301e-09 L205.860933,8 L206.82502,81.0269362 L137.192622,1.20053301e-09 Z M128.019756,1.20053301e-09 L59.1247567,80.4285842 L59.1247567,8 L128.019756,1.20053301e-09 Z" transform="translate(1363 771)"/>
    <path fill="#FFF" d="M1606.67127,884.174391 L1526.5,1041.01186 L1606.67127,884.174391 Z"/>
  </g>
</svg>
