<svg xmlns="http://www.w3.org/2000/svg" width="255" height="319" viewBox="0 0 255 319">
  <path fill="#585858" fill-rule="evenodd" d="M119.2125,285.2475 C127.33875,285.2475 130.96875,288.7125 130.96875,296.50875 L130.96875,296.50875 L130.96875,297.375 L123.13125,297.375 C123.13125,293.745 122.1,292.0125 119.2125,292.0125 L119.2125,292.0125 L118.8,292.0125 C116.53125,292.0125 115.4175,293.29125 115.4175,294.94125 L115.4175,294.94125 L115.4175,295.10625 C115.4175,297.08625 116.0775,298.07625 120.40875,298.65375 C127.42125,299.6025 131.175,301.83 131.175,308.14125 L131.175,308.14125 L131.175,308.595 C131.175,314.90625 127.09125,318.5775 119.2125,318.5775 C111.375,318.5775 107.25,315.31875 107.25,307.23375 L107.25,307.23375 L107.25,306.8625 L115.0875,306.8625 C115.0875,310.41 116.325,311.8125 119.00625,311.8125 L119.00625,311.8125 L119.41875,311.8125 C122.1,311.8125 123.21375,310.36875 123.21375,308.80125 L123.21375,308.80125 L123.21375,308.63625 C123.21375,306.78 122.3475,305.66625 118.01625,305.08875 C111.00375,304.14 107.45625,301.9125 107.45625,295.60125 L107.45625,295.60125 L107.45625,295.1475 C107.45625,289.16625 111.4575,285.2475 119.2125,285.2475 Z M147.88125,285.2475 C155.76,285.2475 159.84375,288.3 159.84375,296.59125 L159.84375,296.59125 L159.84375,298.2 L152.00625,298.2 C152.00625,294.4875 151.3875,292.0125 148.29375,292.0125 L148.29375,292.0125 L147.88125,292.0125 C143.9625,292.0125 143.385,295.51875 143.385,301.0875 L143.385612,303.044744 C143.407535,308.434909 144.035069,311.8125 147.88125,311.8125 L147.88125,311.8125 L148.29375,311.8125 C151.0575,311.8125 152.00625,309.75 152.00625,306.8625 L152.00625,306.8625 L159.84375,306.8625 L159.84375,307.23375 C159.84375,315.525 155.76,318.5775 147.88125,318.5775 C139.21875,318.5775 135.42375,313.875 135.42375,302.7375 L135.42375,302.7375 L135.42375,301.0875 C135.42375,289.95 139.21875,285.2475 147.88125,285.2475 Z M22.89375,285.825 L22.89375,292.59 L15.675,292.59 L15.675,318 L7.8375,318 L7.8375,292.59 L0.61875,292.59 L0.61875,285.825 L22.89375,285.825 Z M66.5894078,285.825675 C71.9790573,285.859364 77.9625,287.1813 77.9625,295.9725 L77.9625,295.9725 L77.9625,296.7975 C77.9625,305.7075 71.81625,306.945 66.37125,306.945 L66.37125,306.945 L63.1125,306.945 L63.1125,318 L55.275,318 L55.275,285.825 Z M102.7125,285.825 L102.7125,292.59 L90.3375,292.59 L90.3375,298.2 L100.65,298.2 L100.65,304.965 L90.3375,304.965 L90.3375,311.235 L102.7125,311.235 L102.7125,318 L82.5,318 L82.5,285.825 L102.7125,285.825 Z M176.314408,285.825675 C181.704057,285.859364 187.6875,287.1813 187.6875,295.9725 L187.6875,295.9725 L187.6875,296.7975 C187.6875,302.03625 185.58375,304.59375 182.7375,305.8725 L182.7375,305.8725 L187.6875,318 L179.23125,318 L175.02375,306.945 L172.8375,306.945 L172.8375,318 L165,318 L165,285.825 Z M200.8875,285.825 L200.8875,318 L193.05,318 L193.05,285.825 L200.8875,285.825 Z M218.183158,285.825675 C223.572807,285.859364 229.55625,287.1813 229.55625,295.9725 L229.55625,295.9725 L229.55625,296.7975 C229.55625,305.7075 223.41,306.945 217.965,306.945 L217.965,306.945 L214.70625,306.945 L214.70625,318 L206.86875,318 L206.86875,285.825 Z M254.925,285.825 L254.925,292.59 L247.70625,292.59 L247.70625,318 L239.86875,318 L239.86875,292.59 L232.65,292.59 L232.65,285.825 L254.925,285.825 Z M33.9075,285.825 L38.36175,298.446 L42.8175,285.825 L51.3975,285.825 L42.28125,308.1 L42.28125,318 L34.44375,318 L34.44375,308.1 L25.3275,285.825 L33.9075,285.825 Z M66.70125,292.59 L63.1125,292.59 L63.1125,300.18 L66.70125,300.18 C68.2275,300.18 70.0425,299.6025 70.0425,296.55 L70.0425,296.55 L70.0425,296.22 C70.0425,293.1675 68.2275,292.59 66.70125,292.59 L66.70125,292.59 Z M176.42625,292.59 L172.8375,292.59 L172.8375,300.18 L176.42625,300.18 C177.9525,300.18 179.7675,299.6025 179.7675,296.55 L179.7675,296.55 L179.7675,296.22 C179.7675,293.1675 177.9525,292.59 176.42625,292.59 L176.42625,292.59 Z M218.295,292.59 L214.70625,292.59 L214.70625,300.18 L218.295,300.18 C219.82125,300.18 221.63625,299.6025 221.63625,296.55 L221.63625,296.55 L221.63625,296.22 C221.63625,293.1675 219.82125,292.59 218.295,292.59 L218.295,292.59 Z M254,0 L254,252 L1,252 L1,0 L254,0 Z M146.486493,114.958564 L58.6778496,114.958564 L58.6778496,136.428003 L91.2921838,136.428003 L91.2921838,231.717636 L114.219397,231.717636 L114.219397,136.428003 L146.486493,136.428003 L146.486493,114.958564 Z M205.061443,116.090682 C196.708284,114.034292 184.862473,115.113653 180.322757,116.683313 C170.714041,120.005639 164.68414,127.14558 163.171066,129.809785 C159.911691,135.548859 159.168363,141.908589 159.090471,147.978118 C158.953778,158.62953 165.460242,166.319958 168.223129,169.178217 C169.780172,170.789006 172.802461,173.287793 176.755193,175.643368 C178.950472,176.951613 181.576367,178.070039 184.054749,179.315362 C193.54801,184.085483 204.231507,188.484399 206.083278,190.100549 C209.288944,192.898326 210.723294,195.624675 210.723294,199.907853 C210.723294,204.191031 208.310546,206.823377 206.083278,208.564368 C201.919513,211.819061 195.146457,211.992685 192.562658,211.992685 C189.91636,211.992685 183.893432,211.273812 178.176933,207.008278 C176.276518,205.590227 173.667204,202.464084 170.348992,197.629848 L170.348992,197.629848 L151.964289,208.564368 L152.33856,209.176749 C156.714246,216.262607 161.411686,221.297891 166.43088,224.282602 C171.219762,227.130355 176.856908,229.935613 184.054749,231.064572 C188.496233,231.761205 194.154797,231.77174 198.964051,231.67273 C211.567152,231.413264 218.056897,226.461277 222.021814,223.29637 C229.50256,217.32503 232.317284,210.774601 233.122568,199.907853 C233.440508,195.617477 231.891368,183.300651 224.547566,176.319315 C213.290845,165.618189 195.053435,160.133644 191.869609,158.075096 C186.608677,154.673568 183.679459,153.584423 181.973351,149.494788 C180.267243,145.405152 181.69636,140.531189 184.054749,137.786862 C186.413138,135.042536 190.028026,134.490852 194.153408,134.490852 C198.27879,134.490852 200.496206,135.704368 202.962995,137.422376 C204.607521,138.567714 206.449384,140.885041 208.488585,144.374357 L208.488585,144.374357 L226.128905,133.030495 L225.802978,132.537426 C223.098306,128.472531 220.678239,125.507937 218.542777,123.643644 C217.072373,122.359958 212.820261,118.000756 205.061443,116.090682 Z"/>
</svg>
