<svg xmlns="http://www.w3.org/2000/svg" width="154" height="178" viewBox="0 0 154 178">
  <g fill="#585858" fill-rule="evenodd">
    <path d="M23.3367676 32.0822801C21.8658652 22.9753473 21.2610709 16.5980918 21.5223845 12.9505135 21.7836982 9.30293518 23.153721 4.99865712 25.6324529.0376793114 30.4799326-.0252464235 34.7187665.735056412 38.3489547 2.31858782 41.9791428 3.90211922 47.6077098 7.44609445 55.2346556 12.9505135L23.3367676 32.0822801zM109.455003 12.6201459C117.582175 7.17501705 123.543671 3.66587291 127.339491 2.09271349 131.135311.519554068 135.693171-.166659801 141.01307.0340718855 143.171879 4.36476265 144.425446 8.56012065 144.773772 12.6201459 145.122098 16.6801711 144.5071 23.1675492 142.92878 32.0822801L109.455003 12.6201459z"/>
    <path d="M83.208907,117.549538 C102.968515,117.549538 124.404048,115.071923 137.227057,104.986165 C149.728227,95.1535461 153.866802,77.902564 153.866802,63.042019 C153.866802,54.1039859 152.371232,44.7137792 147.428367,37.2702337 C135.723457,19.6436049 110.645846,8.53450021 83.208907,8.53450021 C55.2417033,8.53450021 29.7402319,19.0862356 18.2882514,37.2702337 C13.7610222,44.4587832 12.5510123,54.5130476 12.5510123,63.042019 C12.5510123,77.8690806 16.8286862,95.1593507 29.280127,104.986165 C42.1090885,115.110924 63.4058943,117.549538 83.208907,117.549538 Z"/>
    <path d="M62.9683985,115.752447 C61.0449357,118.266579 59.5675895,120.514121 58.5363601,122.495074 C57.5051307,124.476026 56.4045625,127.859207 55.2346556,132.644615 L32.922794,132.644615 C29.2407896,131.903226 26.6323502,129.725637 25.0974758,126.111847 C22.7951642,120.691162 15.801783,115.287458 12.5510123,113.083567 C5.96364294,108.617596 -4.05869803,108.617596 1.73672699,113.083567 C7.53215201,117.549538 7.59138128,118.051976 12.5510123,124.692188 C14.5903806,127.422601 17.1179482,132.597678 19.290601,138.475 C21.4632538,144.352323 22.1413414,145.202277 28.9408744,149.933298 C33.4738963,153.087312 42.2384901,153.087312 55.2346556,149.933298 L55.2346556,172.358455 C51.6968147,175.989636 50.5559608,177.805226 51.812094,177.805226 C53.6962937,177.805226 113.105689,178.045582 115.790321,177.805226 C118.523212,177.56055 117.749429,175.74496 113.468973,172.358455 L111.624175,132.644615 C111.178302,127.89653 110.455245,124.51335 109.455003,122.495074 C108.454762,120.476798 106.201694,118.229255 102.695798,115.752447 L62.9683985,115.752447 Z"/>
  </g>
</svg>
