<svg xmlns="http://www.w3.org/2000/svg" width="181" height="179" viewBox="0 0 181 179">
  <g fill="none" fill-rule="evenodd">
    <rect width="181" height="179" fill="#585858"/>
    <g fill="#FFF" transform="translate(19 20)">
      <polygon points="2 47.529 31.913 47.529 31.913 138.297 2 138.297"/>
      <circle cx="17" cy="17" r="17"/>
      <path d="M53.0317517,47.5293907 L53.0317517,138.296987 L83,138.296987 C83,105.035563 83,85.8029022 83,80.5990051 C83,72.7931594 91.7341793,69.0431554 98.2402048,68.804402 C103.86866,68.5978531 112.5,72.1293265 112.5,80.5990051 C112.5,86.2454574 112.5,105.478118 112.5,138.296987 L142.480021,138.296987 C142.662433,107.515631 142.662433,88.2829705 142.480021,80.5990051 C142.368149,75.8864628 142.35115,70.2096154 134.665469,58.6406582 C129.931528,51.5148404 119.881389,45.8459688 109.630459,45.384127 C103.238727,45.0961562 95.4812795,48.4043547 92.8330153,49.8280027 C90.3164945,51.1808283 87.0388227,53.6602089 83,57.2661443 L83,47.5293907 L53.0317517,47.5293907 Z"/>
    </g>
  </g>
</svg>
